<?xml version="1.0" encoding="UTF-8"?>
<svg version="1.1" xmlns="http://www.w3.org/2000/svg" width="500" height="500">
<path d="M0 0 C2.83501413 2.70706812 3.59101115 4.85501339 3.88504028 8.784729 C3.88059906 10.05491882 3.87615784 11.32510864 3.87158203 12.63378906 C3.87187408 13.33663025 3.87216614 14.03947144 3.87246704 14.76361084 C3.87107717 17.07951334 3.85553238 19.39509142 3.83984375 21.7109375 C3.8361124 23.31947656 3.833266 24.92801791 3.83126831 26.53656006 C3.82364148 30.76491601 3.80400119 34.993134 3.78186035 39.22143555 C3.76138143 43.53822972 3.75226222 47.85504623 3.7421875 52.171875 C3.72075437 60.63808406 3.68662993 69.1041811 3.64453125 77.5703125 C5.95453125 77.9003125 8.26453125 78.2303125 10.64453125 78.5703125 C10.67140404 80.38273302 10.6908684 82.19526483 10.70703125 84.0078125 C10.71863281 85.01714844 10.73023438 86.02648437 10.7421875 87.06640625 C10.64453125 89.5703125 10.64453125 89.5703125 9.64453125 90.5703125 C7.73100279 90.69651146 5.81218102 90.74611951 3.89453125 90.7578125 C2.8478125 90.77199219 1.80109375 90.78617187 0.72265625 90.80078125 C-3.71165548 90.4687706 -6.41469989 89.48494889 -9.60546875 86.3828125 C-13.85131452 79.5591318 -12.48390882 70.28574396 -12.453125 62.54296875 C-12.45125715 61.18533887 -12.44983498 59.82770831 -12.44883728 58.47007751 C-12.44504097 54.91749166 -12.43523571 51.36494746 -12.4241333 47.81237793 C-12.41385676 44.17896081 -12.40932635 40.54553688 -12.40429688 36.91210938 C-12.39361052 29.79816017 -12.37656924 22.68423907 -12.35546875 15.5703125 C-7.90046875 15.0753125 -7.90046875 15.0753125 -3.35546875 14.5703125 C-4.40734375 14.3228125 -5.45921875 14.0753125 -6.54296875 13.8203125 C-9.16455249 13.20346927 -10.48986875 12.46205226 -12.625 10.7421875 C-26.68783939 -0.44370478 -45.62536055 -5.41489327 -63.35546875 -4.4296875 C-74.7812623 -3.03847017 -86.06811607 0.81358454 -95.95703125 6.66796875 C-96.57425049 7.0330957 -97.19146973 7.39822266 -97.82739258 7.77441406 C-99.57509375 8.826883 -101.3038165 9.91067967 -103.03125 10.99609375 C-106.79471021 12.77831991 -109.24001106 12.96728583 -113.35546875 12.5703125 C-115.48126846 11.15311269 -116.1331277 10.0308761 -117.23046875 7.7578125 C-117.42610996 4.33409132 -116.13777424 2.46880931 -114.35546875 -0.4296875 C-112.07301019 -2.16539743 -110.01778394 -3.54733853 -107.54296875 -4.9296875 C-106.87644287 -5.31278076 -106.20991699 -5.69587402 -105.52319336 -6.09057617 C-70.43441314 -25.84693181 -32.74706852 -23.48348337 0 0 Z " fill="#F5F4DD" transform="translate(308.35546875,197.4296875)"/>
<path d="M0 0 C4.95 0 9.9 0 15 0 C15 13.2 15 26.4 15 40 C19.25665708 35.93638209 19.25665708 35.93638209 22.078125 31.44921875 C27.56225129 21.73716353 27.56225129 21.73716353 32.12011719 20.35888672 C37.14324854 19.7737397 42.0160732 20.27149098 47 21 C45.68803678 24.6648662 44.10184201 27.44322613 41.70703125 30.50390625 C41.07732422 31.32697266 40.44761719 32.15003906 39.79882812 32.99804688 C38.46831735 34.71580562 37.13231553 36.42932446 35.79101562 38.13867188 C34.85225586 39.37133789 34.85225586 39.37133789 33.89453125 40.62890625 C33.31550049 41.37213135 32.73646973 42.11535645 32.13989258 42.88110352 C30.81345563 44.89396543 30.81345563 44.89396543 31.1418457 46.99780273 C32.14954661 49.34891372 33.37646487 51.30359696 34.8359375 53.40625 C35.40570313 54.23253906 35.97546875 55.05882812 36.5625 55.91015625 C37.160625 56.76480469 37.75875 57.61945313 38.375 58.5 C38.96539062 59.35464844 39.55578125 60.20929688 40.1640625 61.08984375 C43.33663522 65.68784159 43.33663522 65.68784159 46.69384766 70.15039062 C48 72 48 72 48 74 C32.06818792 75.51731544 32.06818792 75.51731544 27.4921875 72.16015625 C25.70228826 69.52525806 24.35515085 66.88159886 23 64 C21.71013642 61.94395745 20.39790172 59.90176128 19.0625 57.875 C18.051875 56.26625 17.04125 54.6575 16 53 C15.67 59.93 15.34 66.86 15 74 C10.05 74 5.1 74 0 74 C0 49.58 0 25.16 0 0 Z " fill="#A02A2A" transform="translate(214,213)"/>
<path d="M0 0 C1 1 1 1 1.09765625 3.94140625 C1.08605469 5.13636719 1.07445312 6.33132812 1.0625 7.5625 C1.05347656 8.76003906 1.04445312 9.95757812 1.03515625 11.19140625 C1.02355469 12.11824219 1.01195312 13.04507813 1 14 C0.154375 13.855625 -0.69125 13.71125 -1.5625 13.5625 C-13.60524529 11.00333726 -13.60524529 11.00333726 -25 14 C-26.16448881 16.90351124 -26.16448881 16.90351124 -26 20 C-23.55197449 23.70486619 -19.35014394 24.26502804 -15.3125 25.375 C-1.16861722 29.55750973 -1.16861722 29.55750973 2.67578125 35.66015625 C4.20987744 39.52933691 4.44428959 42.90421522 4.375 47 C4.38660156 47.68578125 4.39820313 48.3715625 4.41015625 49.078125 C4.38316932 53.7918415 3.47126033 57.00391946 1 61 C-6.33984622 68.17673853 -13.16826299 68.32109208 -22.9375 68.25 C-24.52594727 68.26160156 -24.52594727 68.26160156 -26.14648438 68.2734375 C-31.82141872 68.25927672 -36.64615812 67.91915812 -42 66 C-42 61.38 -42 56.76 -42 52 C-40.081875 52.33 -38.16375 52.66 -36.1875 53 C-24.366754 54.81123278 -24.366754 54.81123278 -13 52 C-12.14612895 48.69432511 -12.14612895 48.69432511 -12 45 C-15.0339424 40.77471896 -19.06373782 39.78006058 -23.875 38.5 C-30.78646147 36.64070146 -37.05745974 34.43256569 -41 28 C-43.118806 21.643582 -43.16883265 13.62385172 -40.4375 7.4375 C-37.32404383 2.24840639 -32.89446576 0.65326405 -27.375 -1.25 C-18.47174884 -3.18248862 -8.71681335 -2.55171673 0 0 Z " fill="#A02A2A" transform="translate(198,220)"/>
<path d="M0 0 C0 20.46 0 40.92 0 62 C3.465 62.495 3.465 62.495 7 63 C7.02687279 64.81242052 7.04633715 66.62495233 7.0625 68.4375 C7.07410156 69.44683594 7.08570313 70.45617187 7.09765625 71.49609375 C7 74 7 74 6 75 C4.08647154 75.12619896 2.16764977 75.17580701 0.25 75.1875 C-0.79671875 75.20167969 -1.8434375 75.21585937 -2.921875 75.23046875 C-7.35618673 74.8984581 -10.05923114 73.91463639 -13.25 70.8125 C-17.49584577 63.9888193 -16.12844007 54.71543146 -16.09765625 46.97265625 C-16.0957884 45.61502637 -16.09436623 44.25739581 -16.09336853 42.89976501 C-16.08957222 39.34717916 -16.07976696 35.79463496 -16.06866455 32.24206543 C-16.05838801 28.60864831 -16.0538576 24.97522438 -16.04882812 21.34179688 C-16.03814177 14.22784767 -16.02110049 7.11392657 -16 0 C-14.45963043 -0.19787356 -12.91759048 -0.38275863 -11.375 -0.5625 C-10.51648438 -0.66691406 -9.65796875 -0.77132812 -8.7734375 -0.87890625 C-6 -1 -6 -1 0 0 Z " fill="#9F2727" transform="translate(312,213)"/>
<path d="M0 0 C4.95 0 9.9 0 15 0 C15.33 20.13 15.66 40.26 16 61 C17.98 61.66 19.96 62.32 22 63 C22 66.96 22 70.92 22 75 C7.53402994 75.57949732 7.53402994 75.57949732 3 72 C0.34613052 67.60292425 -0.36991451 64.36512464 -0.34057617 59.26025391 C-0.34101425 58.61564209 -0.34145233 57.97103027 -0.34190369 57.30688477 C-0.33982956 55.19645885 -0.31656576 53.08684797 -0.29296875 50.9765625 C-0.28736785 49.50540602 -0.28310009 48.03424392 -0.28010559 46.56307983 C-0.26869557 42.70620048 -0.23926212 38.84966441 -0.20599365 34.99291992 C-0.1752094 31.05131676 -0.16158247 27.10965769 -0.14648438 23.16796875 C-0.11438811 15.44513849 -0.06165229 7.72266123 0 0 Z " fill="#A02C2B" transform="translate(326,213)"/>
<path d="M0 0 C4.95 0 9.9 0 15 0 C15 17.49 15 34.98 15 53 C10.05 53 5.1 53 0 53 C0 35.51 0 18.02 0 0 Z " fill="#A32929" transform="translate(269,234)"/>
<path d="M0 0 C0.86625 -0.00515625 1.7325 -0.0103125 2.625 -0.015625 C5 0.25 5 0.25 8 2.25 C8.3984375 5 8.3984375 5 8.375 8.25 C8.38273437 9.3225 8.39046875 10.395 8.3984375 11.5 C8.26695312 12.4075 8.13546875 13.315 8 14.25 C4.85388747 16.34740836 4.08811922 16.50328219 0.5 16.4375 C-0.2734375 16.43105469 -1.046875 16.42460937 -1.84375 16.41796875 C-4 16.25 -4 16.25 -7 15.25 C-8.29729053 12.65541894 -8.2042812 10.64552402 -8.25 7.75 C-8.27578125 6.7703125 -8.3015625 5.790625 -8.328125 4.78125 C-8.21984375 3.9459375 -8.1115625 3.110625 -8 2.25 C-4.76085771 0.09057181 -3.75140267 -0.02232978 0 0 Z " fill="#9D2C2C" transform="translate(276,211.75)"/>
<path d="M0 0 C2.9375 1 2.9375 1 4.8125 2.6875 C6.27440996 5.69253713 6.35918789 7.69677822 5.9375 11 C4.9375 12.875 4.9375 12.875 2.9375 14 C0.08511266 14.41998341 -2.12816149 14.27946081 -5.0625 14 C-7.54288907 10.2794164 -7.52587203 8.40203429 -7.0625 4 C-4.90530457 0.68123779 -3.98614767 0 0 0 Z " fill="#F6F6E0" transform="translate(253.0625,195)"/>
<path d="M0 0 C2.97 0.495 2.97 0.495 6 1 C6.02687279 2.81242052 6.04633715 4.62495233 6.0625 6.4375 C6.07410156 7.44683594 6.08570313 8.45617187 6.09765625 9.49609375 C6 12 6 12 5 13 C3.08647154 13.12619896 1.16764977 13.17580701 -0.75 13.1875 C-1.79671875 13.20167969 -2.8434375 13.21585937 -3.921875 13.23046875 C-8.5376162 12.88487391 -11.14122313 11.88137626 -14.375 8.5625 C-14.91125 7.716875 -15.4475 6.87125 -16 6 C-15.67 5.01 -15.34 4.02 -15 3 C-14.01 4.32 -13.02 5.64 -12 7 C-12.33 5.68 -12.66 4.36 -13 3 C-11.68 3 -10.36 3 -9 3 C-8.67 3.99 -8.34 4.98 -8 6 C-7.01 6.66 -6.02 7.32 -5 8 C-5 8.33 -5 8.66 -5 9 C-3.68 8.67 -2.36 8.34 -1 8 C-1 9.32 -1 10.64 -1 12 C0.65 12 2.3 12 4 12 C3.814375 10.700625 3.62875 9.40125 3.4375 8.0625 C3.12109375 5.84765625 3.12109375 5.84765625 3 4 C3.33 3.67 3.66 3.34 4 3 C2.68 2.67 1.36 2.34 0 2 C0 1.34 0 0.68 0 0 Z " fill="#972728" transform="translate(313,275)"/>
<path d="M0 0 C0.33 0 0.66 0 1 0 C1 16.5 1 33 1 50 C-1 49 -1 49 -1.62265015 47.21733093 C-2.0131956 44.92246187 -2.08888242 42.84907026 -2.03759766 40.52270508 C-2.02072906 39.64532181 -2.00386047 38.76793854 -1.98648071 37.8639679 C-1.9625827 36.9253038 -1.93868469 35.98663971 -1.9140625 35.01953125 C-1.89282318 34.05093674 -1.87158386 33.08234222 -1.84970093 32.08439636 C-1.80350385 30.04098424 -1.75458102 27.99763216 -1.703125 25.9543457 C-1.62503957 22.81409151 -1.55801954 19.67373549 -1.4921875 16.53320312 C-1.44597373 14.54946365 -1.39912093 12.56573894 -1.3515625 10.58203125 C-1.33171295 9.63729446 -1.3118634 8.69255768 -1.29141235 7.7191925 C-1.26823944 6.85126572 -1.24506653 5.98333893 -1.22119141 5.08911133 C-1.20263092 4.32174149 -1.18407043 3.55437164 -1.16494751 2.76374817 C-1 1 -1 1 0 0 Z " fill="#8E201D" transform="translate(283,237)"/>
<path d="M0 0 C1.32 0 2.64 0 4 0 C4.33 0.66 4.66 1.32 5 2 C5.33 1.34 5.66 0.68 6 0 C6.99 0 7.98 0 9 0 C9 2.97 9 5.94 9 9 C8.2575 8.814375 7.515 8.62875 6.75 8.4375 C3.77159084 7.77947289 3.77159084 7.77947289 0 9 C0 6.03 0 3.06 0 0 Z " fill="#8D2F2F" transform="translate(331,294)"/>
<path d="M0 0 C0.33 0 0.66 0 1 0 C1 12.54 1 25.08 1 38 C4.17729325 34.82270675 6.74084058 32.21605594 9.3125 28.6875 C9.82425781 27.99011719 10.33601562 27.29273438 10.86328125 26.57421875 C11.23839844 26.05472656 11.61351562 25.53523438 12 25 C12.63671875 26.84765625 12.63671875 26.84765625 13 29 C10.8125 31.4375 10.8125 31.4375 8 34 C7.319375 34.928125 6.63875 35.85625 5.9375 36.8125 C5.298125 37.534375 4.65875 38.25625 4 39 C2.68 39 1.36 39 0 39 C0 26.13 0 13.26 0 0 Z " fill="#802B2A" transform="translate(228,215)"/>
<path d="M0 0 C2.31 0 4.62 0 7 0 C7 2.97 7 5.94 7 9 C4.69 9 2.38 9 0 9 C0 6.03 0 3.06 0 0 Z " fill="#922E31" transform="translate(320,294)"/>
<path d="M0 0 C1.32 0 2.64 0 4 0 C4.66 2.97 5.32 5.94 6 9 C5.01 9 4.02 9 3 9 C3 8.34 3 7.68 3 7 C2.01 7 1.02 7 0 7 C0 7.66 0 8.32 0 9 C-0.99 9 -1.98 9 -3 9 C-2.01 6.03 -1.02 3.06 0 0 Z " fill="#852728" transform="translate(299,294)"/>
<path d="M0 0 C1.32 0 2.64 0 4 0 C5.49821059 3.37097383 6 5.20442119 6 9 C5.01 9 4.02 9 3 9 C3 8.34 3 7.68 3 7 C2.01 7.66 1.02 8.32 0 9 C-0.99 8.67 -1.98 8.34 -3 8 C-2.01 5.36 -1.02 2.72 0 0 Z " fill="#922F31" transform="translate(346,294)"/>
<path d="M0 0 C2.31 0 4.62 0 7 0 C7 2.97 7 5.94 7 9 C6.01 8.67 5.02 8.34 4 8 C4 7.34 4 6.68 4 6 C3.34 6 2.68 6 2 6 C2 6.99 2 7.98 2 9 C1.34 9 0.68 9 0 9 C0 6.03 0 3.06 0 0 Z M2 2 C2 2.66 2 3.32 2 4 C2.66 4 3.32 4 4 4 C4 3.34 4 2.68 4 2 C3.34 2 2.68 2 2 2 Z " fill="#97282A" transform="translate(309,294)"/>
<path d="M0 0 C17.34042553 3.80851064 17.34042553 3.80851064 25 9 C25 9.99 25 10.98 25 12 C22.28775382 10.38731308 19.62647188 8.75098126 17 7 C13.73729127 5.69491651 11.46703949 4.97140575 7.9375 5.1875 C3.85877029 4.92715555 2.70505055 2.90576256 0 0 Z " fill="#8B2C30" transform="translate(173,243)"/>
<path d="M0 0 C2.97 0.495 2.97 0.495 6 1 C6.02687279 2.81242052 6.04633715 4.62495233 6.0625 6.4375 C6.07410156 7.44683594 6.08570313 8.45617187 6.09765625 9.49609375 C6 12 6 12 5 13 C2.98035801 13.07244053 0.95832876 13.08377188 -1.0625 13.0625 C-2.16722656 13.05347656 -3.27195312 13.04445313 -4.41015625 13.03515625 C-5.69212891 13.01775391 -5.69212891 13.01775391 -7 13 C-7 12.67 -7 12.34 -7 12 C-3.37 12 0.26 12 4 12 C3.814375 10.700625 3.62875 9.40125 3.4375 8.0625 C3.12109375 5.84765625 3.12109375 5.84765625 3 4 C3.33 3.67 3.66 3.34 4 3 C2.68 2.67 1.36 2.34 0 2 C0 1.34 0 0.68 0 0 Z " fill="#882D2F" transform="translate(313,275)"/>
<path d="M0 0 C4.29 0.66 8.58 1.32 13 2 C13 2.33 13 2.66 13 3 C11.7625 3.020625 10.525 3.04125 9.25 3.0625 C8.55390625 3.07410156 7.8578125 3.08570313 7.140625 3.09765625 C5 3 5 3 1 2 C1 5.3 1 8.6 1 12 C2.98 12.495 2.98 12.495 5 13 C4.67 13.66 4.34 14.32 4 15 C2.68 14.67 1.36 14.34 0 14 C0 9.38 0 4.76 0 0 Z " fill="#8F2E2E" transform="translate(156,272)"/>
<path d="M0 0 C1.32 0 2.64 0 4 0 C3.67 1.32 3.34 2.64 3 4 C5.31 4.33 7.62 4.66 10 5 C10 5.66 10 6.32 10 7 C5.00088076 6.52389341 2.02167317 4.96837781 -2 2 C-1.34 1.34 -0.68 0.68 0 0 Z " fill="#912C2D" transform="translate(162,250)"/>
<path d="M0 0 C0.33 0.66 0.66 1.32 1 2 C1.99 2.33 2.98 2.66 4 3 C5.1875 5.0625 5.1875 5.0625 6 7 C4.02 7 2.04 7 0 7 C0 4.69 0 2.38 0 0 Z " fill="#912624" transform="translate(321,296)"/>
<path d="M0 0 C2.78637633 4.1795645 1.79562512 6.14668677 1 11 C-0.65 11 -2.3 11 -4 11 C-3.525625 10.67 -3.05125 10.34 -2.5625 10 C-0.14208385 6.90186733 -0.31801083 3.87973208 0 0 Z " fill="#FCF9EF" transform="translate(310,200)"/>
<path d="M0 0 C1.9375 0.625 1.9375 0.625 4 2 C4.75 5.125 4.75 5.125 5 8 C4.01 8 3.02 8 2 8 C2 6.68 2 5.36 2 4 C1.34 4 0.68 4 0 4 C0 2.68 0 1.36 0 0 Z " fill="#932A2A" transform="translate(300,295)"/>
<path d="M0 0 C1.65 0 3.3 0 5 0 C5 1.65 5 3.3 5 5 C3.68 5 2.36 5 1 5 C0.67 3.35 0.34 1.7 0 0 Z " fill="#9C2722" transform="translate(334,296)"/>
<path d="M0 0 C0.66 0 1.32 0 2 0 C2.33 1.98 2.66 3.96 3 6 C2.01 6 1.02 6 0 6 C0 5.01 0 4.02 0 3 C-0.66 2.67 -1.32 2.34 -2 2 C-1.34 1.34 -0.68 0.68 0 0 Z " fill="#882627" transform="translate(349,297)"/>
<path d="M0 0 C1.70884005 1.62339805 3.37446717 3.29319053 5 5 C5 5.66 5 6.32 5 7 C4.01 7 3.02 7 2 7 C0 4 0 4 0 0 Z " fill="#8E2930" transform="translate(257,280)"/>
<path d="M0 0 C2.97 0.495 2.97 0.495 6 1 C5.67 3.31 5.34 5.62 5 8 C4.34 6.68 3.68 5.36 3 4 C3.33 3.67 3.66 3.34 4 3 C2.68 2.67 1.36 2.34 0 2 C0 1.34 0 0.68 0 0 Z " fill="#812627" transform="translate(313,275)"/>
</svg>
